<svg preserveAspectRatio="none" width="100%" height="100%" overflow="visible" style="display: block;" viewBox="0 0 994 4" fill="none" xmlns="http://www.w3.org/2000/svg">
<g id="Group">
<path id="Vector" d="M518.518 0H475.262V4H518.518V0Z" fill="var(--fill-0, #FFF7E8)"/>
<path id="Vector_2" d="M470.105 0H464.848V4H470.105V0Z" fill="var(--fill-0, #FFF7E8)"/>
<path id="Vector_3" d="M456.031 0H451.793V4H456.031V0Z" fill="var(--fill-0, #FFF7E8)"/>
<path id="Vector_4" d="M437.662 0H434.104V4H437.662V0Z" fill="var(--fill-0, #FFF7E8)"/>
<path id="Vector_5" d="M414.353 0H411.375V4H414.353V0Z" fill="var(--fill-0, #FFF7E8)"/>
<path id="Vector_6" d="M528.933 0H523.676V4H528.933V0Z" fill="var(--fill-0, #FFF7E8)"/>
<path id="Vector_7" d="M541.966 0H537.729V4H541.966V0Z" fill="var(--fill-0, #FFF7E8)"/>
<path id="Vector_8" d="M559.656 0H556.098V4H559.656V0Z" fill="var(--fill-0, #FFF7E8)"/>
<path id="Vector_9" d="M582.385 0H579.406V4H582.385V0Z" fill="var(--fill-0, #FFF7E8)"/>
<path id="Vector_10" d="M231.455 0H228.477V4H231.455V0Z" fill="var(--fill-0, #FFF7E8)"/>
<path id="Vector_11" d="M254.322 0H251.344V4H254.322V0Z" fill="var(--fill-0, #FFF7E8)"/>
<path id="Vector_12" d="M277.189 0H274.211V4H277.189V0Z" fill="var(--fill-0, #FFF7E8)"/>
<path id="Vector_13" d="M300.057 0H297.078V4H300.057V0Z" fill="var(--fill-0, #FFF7E8)"/>
<path id="Vector_14" d="M322.904 0H319.926V4H322.904V0Z" fill="var(--fill-0, #FFF7E8)"/>
<path id="Vector_15" d="M345.773 0H342.795V4H345.773V0Z" fill="var(--fill-0, #FFF7E8)"/>
<path id="Vector_16" d="M368.639 0H365.66V4H368.639V0Z" fill="var(--fill-0, #FFF7E8)"/>
<path id="Vector_17" d="M391.488 0H388.51V4H391.488V0Z" fill="var(--fill-0, #FFF7E8)"/>
<path id="Vector_18" d="M605.252 0H602.273V4H605.252V0Z" fill="var(--fill-0, #FFF7E8)"/>
<path id="Vector_19" d="M628.119 0H625.141V4H628.119V0Z" fill="var(--fill-0, #FFF7E8)"/>
<path id="Vector_20" d="M650.986 0H648.008V4H650.986V0Z" fill="var(--fill-0, #FFF7E8)"/>
<path id="Vector_21" d="M673.834 0H670.855V4H673.834V0Z" fill="var(--fill-0, #FFF7E8)"/>
<path id="Vector_22" d="M696.701 0H693.723V4H696.701V0Z" fill="var(--fill-0, #FFF7E8)"/>
<path id="Vector_23" d="M719.57 0H716.592V4H719.57V0Z" fill="var(--fill-0, #FFF7E8)"/>
<path id="Vector_24" d="M742.435 0H739.457V4H742.435V0Z" fill="var(--fill-0, #FFF7E8)"/>
<path id="Vector_25" d="M765.285 0H762.307V4H765.285V0Z" fill="var(--fill-0, #FFF7E8)"/>
<path id="Vector_26" d="M788.312 0H785.334V4H788.312V0Z" fill="var(--fill-0, #FFF7E8)"/>
<path id="Vector_27" d="M994 0H991.021V4H994V0Z" fill="var(--fill-0, #FFF7E8)"/>
<path id="Vector_28" d="M811.099 0H808.121V4H811.099V0Z" fill="var(--fill-0, #FFF7E8)"/>
<path id="Vector_29" d="M833.967 0H830.988V4H833.967V0Z" fill="var(--fill-0, #FFF7E8)"/>
<path id="Vector_30" d="M856.816 0H853.838V4H856.816V0Z" fill="var(--fill-0, #FFF7E8)"/>
<path id="Vector_31" d="M879.682 0H876.703V4H879.682V0Z" fill="var(--fill-0, #FFF7E8)"/>
<path id="Vector_32" d="M902.551 0H899.572V4H902.551V0Z" fill="var(--fill-0, #FFF7E8)"/>
<path id="Vector_33" d="M925.416 0H922.438V4H925.416V0Z" fill="var(--fill-0, #FFF7E8)"/>
<path id="Vector_34" d="M948.265 0H945.287V4H948.265V0Z" fill="var(--fill-0, #FFF7E8)"/>
<path id="Vector_35" d="M971.133 0H968.154V4H971.133V0Z" fill="var(--fill-0, #FFF7E8)"/>
<path id="Vector_36" d="M2.97836 0H0V4H2.97836V0Z" fill="var(--fill-0, #FFF7E8)"/>
<path id="Vector_37" d="M208.668 0H205.69V4H208.668V0Z" fill="var(--fill-0, #FFF7E8)"/>
<path id="Vector_38" d="M25.7674 0H22.789V4H25.7674V0Z" fill="var(--fill-0, #FFF7E8)"/>
<path id="Vector_39" d="M48.6346 0H45.6562V4H48.6346V0Z" fill="var(--fill-0, #FFF7E8)"/>
<path id="Vector_40" d="M71.5018 0H68.5234V4H71.5018V0Z" fill="var(--fill-0, #FFF7E8)"/>
<path id="Vector_41" d="M94.3495 0H91.3711V4H94.3495V0Z" fill="var(--fill-0, #FFF7E8)"/>
<path id="Vector_42" d="M117.217 0H114.238V4H117.217V0Z" fill="var(--fill-0, #FFF7E8)"/>
<path id="Vector_43" d="M140.084 0H137.106V4H140.084V0Z" fill="var(--fill-0, #FFF7E8)"/>
<path id="Vector_44" d="M162.951 0H159.973V4H162.951V0Z" fill="var(--fill-0, #FFF7E8)"/>
<path id="Vector_45" d="M185.799 0H182.82V4H185.799V0Z" fill="var(--fill-0, #FFF7E8)"/>
</g>
</svg>
