<svg preserveAspectRatio="xMidYMid meet" width="100%" height="100%" overflow="visible" style="display: block;" viewBox="0 0 219.767 21" fill="none" xmlns="http://www.w3.org/2000/svg">
<g id="Group">
<g id="Union">
<path d="M138.203 21H136.757V0H138.203V21Z" fill="var(--fill-0, black)"/>
<path d="M149.516 21H147.787V0H149.516V21Z" fill="var(--fill-0, black)"/>
<path d="M158.439 21H156.378V0H158.439V21Z" fill="var(--fill-0, black)"/>
<path d="M165.258 21H162.706V0H165.258V21Z" fill="var(--fill-0, black)"/>
<path d="M188.762 21H167.762V0H188.762V21Z" fill="var(--fill-0, black)"/>
<path d="M193.818 21H191.266V0H193.818V21Z" fill="var(--fill-0, black)"/>
<path d="M200.146 21H198.086V0H200.146V21Z" fill="var(--fill-0, black)"/>
<path d="M208.737 21H207.007V0H208.737V21Z" fill="var(--fill-0, black)"/>
<path d="M219.767 21H218.321V0H219.767V21Z" fill="var(--fill-0, black)"/>
<path d="M46.6413 6.70726C47.6692 6.70726 48.5849 6.87775 49.3876 7.2193C50.1902 7.56017 50.8191 8.03975 51.2769 8.6574C51.7327 9.27442 51.9606 9.9899 51.9606 10.8051C51.9606 11.7756 51.6555 12.5802 51.0411 13.2177C50.4293 13.8552 49.4761 14.3224 48.1839 14.619L45.852 15.1375C44.5505 15.4421 43.9005 16.03 43.9004 16.902C43.9004 17.4298 44.166 17.8777 44.6971 18.2477C45.2282 18.6183 45.9292 18.804 46.8013 18.804C47.6072 18.804 48.2651 18.6302 48.7698 18.2847C49.2765 17.9392 49.6115 17.4298 49.7773 16.754H52.431L52.3564 17.1497C52.1338 18.3593 51.5366 19.2974 50.5668 19.964C49.595 20.6306 48.3365 20.9636 46.7899 20.9636C45.6788 20.9636 44.6991 20.7806 43.8515 20.414C43.0039 20.0486 42.3407 19.5419 41.8644 18.8958C41.3874 18.2497 41.1483 17.5118 41.1483 16.6807C41.1483 15.7176 41.4614 14.9274 42.0864 14.3104C42.712 13.6934 43.6534 13.2402 44.9138 12.9522L47.1236 12.4587C47.8714 12.2863 48.4171 12.0557 48.7587 11.7677C49.0995 11.4803 49.2707 11.105 49.2707 10.6445C49.2707 10.118 49.0182 9.68396 48.5115 9.34176C48.0049 9.00024 47.3739 8.82988 46.6168 8.82988C45.7766 8.82989 45.1456 9.02277 44.7215 9.40989C44.2981 9.797 44.0081 10.2211 43.8515 10.6815H41.3675C41.3675 10.4866 41.4187 10.2658 41.4197 10.2615C41.7004 9.19259 42.2654 8.33169 43.117 7.68163C43.9685 7.03162 45.1437 6.70726 46.6413 6.70726Z" fill="var(--fill-0, black)"/>
<path fill-rule="evenodd" clip-rule="evenodd" d="M16.3121 6.7068C17.6043 6.7068 18.7346 7.00282 19.7011 7.59539C20.6676 8.1873 21.4169 9.02091 21.9487 10.0944C22.4778 11.1692 22.7434 12.4219 22.7434 13.8535C22.7434 15.2692 22.4778 16.5125 21.9487 17.5814C21.4169 18.651 20.6676 19.4826 19.7011 20.0752C18.7346 20.6677 17.6043 20.9631 16.3121 20.9631C15.0127 20.9631 13.8803 20.6677 12.9178 20.0752C11.9553 19.4826 11.2061 18.6509 10.671 17.5814C10.1359 16.5125 9.86836 15.2692 9.86835 13.8535C9.86835 12.4219 10.1359 11.1692 10.671 10.0944C11.2061 9.02093 11.9553 8.1873 12.9178 7.59539C13.8803 7.00282 15.0127 6.70681 16.3121 6.7068ZM16.3121 8.96552C15.4646 8.96553 14.7657 9.1875 14.2141 9.63208C13.6625 10.0767 13.2535 10.6692 12.9859 11.4091C12.7184 12.1503 12.5849 12.9656 12.5849 13.8535C12.5849 14.7255 12.7184 15.5308 12.9859 16.2673C13.2535 17.0039 13.6625 17.5933 14.2141 18.0379C14.7657 18.4824 15.4646 18.705 16.3121 18.705C17.1524 18.705 17.8455 18.4825 18.3918 18.0379C18.9401 17.5933 19.3491 17.0039 19.62 16.2673C19.8915 15.5308 20.0289 14.7255 20.0289 13.8535C20.0289 12.9656 19.8915 12.1503 19.62 11.4091C19.3491 10.6692 18.9401 10.0767 18.3918 9.63208C17.8455 9.18748 17.1524 8.96552 16.3121 8.96552Z" fill="var(--fill-0, black)"/>
<path fill-rule="evenodd" clip-rule="evenodd" d="M74.5008 6.70726C75.6119 6.70727 76.6048 6.98677 77.4768 7.54631C78.3488 8.10585 79.0385 8.91638 79.5433 9.97798C80.05 11.0396 80.3024 12.3193 80.3024 13.8169C80.3024 15.298 80.0532 16.5718 79.5564 17.6367C79.057 18.7029 78.3733 19.5214 77.5013 20.0928C76.6293 20.6656 75.6363 20.9511 74.5251 20.9511C71.3669 20.951 70.2702 19.2316 70.1135 18.9447H69.8367L69.665 20.6801H67.2318V6.87897H69.7271L69.8988 8.72816H70.1135C70.2701 8.44012 71.5716 6.70726 74.5008 6.70726ZM73.9339 8.98967C73.1425 8.98967 72.4811 9.18986 71.946 9.58888C71.4116 9.98856 71.0079 10.5475 70.7371 11.2676C70.4636 11.9877 70.3281 12.8286 70.3281 13.7925C70.3281 14.755 70.4696 15.6025 70.7484 16.3352C71.0291 17.0671 71.4341 17.64 71.9652 18.0503C72.4944 18.4618 73.1517 18.6679 73.9339 18.6679C74.7227 18.6679 75.3912 18.4545 75.9395 18.0258C76.4858 17.5984 76.8968 17.0163 77.1676 16.2797C77.4391 15.5431 77.5745 14.7134 77.5745 13.7925C77.5745 12.8788 77.4391 12.0604 77.1676 11.3363C76.8968 10.6116 76.4899 10.0388 75.9508 9.62C75.4124 9.19985 74.7399 8.98967 73.9339 8.98967Z" fill="var(--fill-0, black)"/>
<path d="M63.7077 6.87897H65.7201V9.03984H63.7077V17.3109C63.7077 19.1712 62.1995 20.6801 60.3392 20.6801H56.9396V18.2483H60.0698C60.6002 18.2483 61.0296 17.8183 61.0296 17.2885V9.03984H58.1909V6.87897H61.0296V3.59633H63.7077V6.87897Z" fill="var(--fill-0, black)"/>
<path d="M94.3169 20.68H91.6513V13.1296C91.6513 11.9002 90.8532 9.02795 87.932 9.02791C87.0012 9.02791 86.2764 9.30727 85.7526 9.86681C85.2307 10.4264 84.9691 11.2165 84.9691 12.2365V20.68H82.277V11.916C82.277 10.7633 82.4772 9.80082 82.8762 9.02791C83.2759 8.25432 83.8295 7.67424 84.5377 7.28711C85.2439 6.90001 86.3821 6.70711 87.3294 6.70711C89.6706 6.70711 90.873 7.67554 91.5554 8.58323H91.6889V2.28814H94.3169V20.68Z" fill="var(--fill-0, black)"/>
<path d="M102.143 16.5443H102.328L106.044 2.28798H108.932L112.66 16.5318H112.833L116.412 2.28798H119.326L114.24 20.6798H111.426L107.562 6.91706H107.414L103.55 20.6798H100.761L95.6375 2.28798H98.5759L102.143 16.5443Z" fill="var(--fill-0, black)"/>
<path fill-rule="evenodd" clip-rule="evenodd" d="M39.0766 20.6795H33.1125C31.2463 20.6795 29.652 20.3095 28.3354 19.5682C27.0188 18.8283 26.0133 17.7707 25.3183 16.3966C24.6227 15.0225 24.2746 13.3769 24.2746 11.4591C24.2746 9.55061 24.6214 7.91032 25.3124 6.54019C26.0041 5.17006 26.9945 4.11886 28.2866 3.38622C29.5788 2.65428 31.1253 2.28768 32.9281 2.28767H39.0766V20.6795ZM33.1012 4.7195C31.7602 4.7195 30.6378 4.98041 29.7314 5.50296C28.8257 6.02617 28.1452 6.78851 27.6881 7.79265C27.2322 8.79679 27.0043 10.019 27.0043 11.4591C27.0043 12.9079 27.2336 14.1399 27.6953 15.1559C28.1551 16.172 28.8501 16.9417 29.7802 17.4642C30.711 17.9874 31.8751 18.2477 33.2749 18.2477H36.2979V4.7195H33.1012Z" fill="var(--fill-0, black)"/>
<path d="M56.0114 6.87913V11.4837H53.8604V6.87913H56.0114Z" fill="var(--fill-0, black)"/>
<path fill-rule="evenodd" clip-rule="evenodd" d="M5.95663 8.84196H5.30926V7.21868H4.43197C4.41612 7.21868 4.40412 7.21547 4.38893 7.21481L3.51628 8.84196H2.77974L3.73305 7.09853C3.69078 7.08268 3.64057 7.07401 3.6016 7.05486C3.38161 6.94586 3.21699 6.79126 3.10799 6.59175C2.99901 6.39226 2.94417 6.16164 2.94417 5.90073C2.94418 5.63653 2.99901 5.40269 3.10799 5.20057C3.21699 4.99842 3.38154 4.83983 3.6002 4.72554C3.81886 4.61126 4.09367 4.55445 4.42594 4.55445H5.95663V8.84196ZM4.49468 5.10999C4.282 5.10999 4.10961 5.14173 3.97815 5.20645C3.8467 5.27053 3.75083 5.3617 3.68939 5.47927C3.62796 5.5975 3.59758 5.73825 3.59757 5.90073C3.59757 6.06192 3.62737 6.19947 3.68815 6.31243C3.74827 6.42602 3.84475 6.51314 3.97552 6.57457C4.10698 6.63533 4.27935 6.66654 4.49205 6.66654H5.30926V5.10999H4.49468Z" fill="var(--fill-0, black)"/>
<path fill-rule="evenodd" clip-rule="evenodd" d="M4.60461 2.25067C7.14801 2.25068 9.20923 4.31254 9.20923 6.85528C9.2092 9.39866 7.14799 11.4597 4.60461 11.4597C2.06188 11.4597 2.89374e-05 9.39867 1.15839e-06 6.85528C1.15839e-06 4.31253 2.06187 2.25067 4.60461 2.25067ZM4.60461 3.07717C2.51836 3.07717 0.827125 4.76903 0.827125 6.85528C0.827153 8.94217 2.51837 10.6334 4.60461 10.6334C6.6915 10.6334 8.38269 8.94217 8.38272 6.85528C8.38272 4.76903 6.69152 3.07719 4.60461 3.07717Z" fill="var(--fill-0, black)"/>
</g>
</g>
</svg>
