<svg preserveAspectRatio="none" width="100%" height="100%" overflow="visible" style="display: block;" viewBox="0 0 21.5 19.5" fill="none" xmlns="http://www.w3.org/2000/svg">
<path id="Vector" d="M7.75002 8.75002V10.75M7.75002 3.75002V5.75002M7.75002 13.75V15.75M0.750018 12.9265V15.15C0.750018 15.7074 0.750018 15.9861 0.786948 16.2193C0.990268 17.503 1.99704 18.5098 3.28072 18.7131C3.51391 18.75 3.79262 18.75 4.35002 18.75H17.15C17.7074 18.75 17.9861 18.75 18.2193 18.7131C19.503 18.5098 20.5098 17.503 20.7131 16.2193C20.75 15.9861 20.75 15.7074 20.75 15.15V12.9265C20.75 12.829 20.671 12.75 20.5735 12.75C19.0141 12.75 17.75 11.4859 17.75 9.92652V9.57352C17.75 8.01412 19.0141 6.75002 20.5735 6.75002C20.671 6.75002 20.75 6.67101 20.75 6.57355V4.35002C20.75 3.79262 20.75 3.51391 20.7131 3.28072C20.5098 1.99704 19.503 0.990268 18.2193 0.786948C17.9861 0.750018 17.7074 0.750018 17.15 0.750018H4.35002C3.79262 0.750018 3.51391 0.750018 3.28072 0.786948C1.99704 0.990268 0.990268 1.99704 0.786948 3.28072C0.750018 3.51391 0.750018 3.79262 0.750018 4.35002V6.57355C0.750018 6.67101 0.829028 6.75002 0.926488 6.75002C2.48588 6.75002 3.75002 8.01412 3.75002 9.57352V9.92652C3.75002 11.4859 2.48588 12.75 0.926488 12.75C0.829028 12.75 0.750018 12.829 0.750018 12.9265Z" stroke="var(--stroke-0, black)" stroke-width="1.5" stroke-linecap="round" stroke-linejoin="round"/>
</svg>
