<svg preserveAspectRatio="none" width="100%" height="100%" overflow="visible" style="display: block;" viewBox="0 0 21.8431 21.8431" fill="none" xmlns="http://www.w3.org/2000/svg">
<path id="Vector" d="M2.42157 19.4216L3.92157 17.9216M17.9216 3.92157L19.4216 2.42157M13.9216 7.92157L7.92157 13.9216M9.92157 19.9216C10.4668 19.3764 10.7395 19.1037 10.8852 18.8096C11.1625 18.2501 11.1625 17.5931 10.8852 17.0336C10.7395 16.7395 10.4669 16.4669 9.92157 15.9216L5.92157 11.9216C5.37632 11.3764 5.1037 11.1037 4.8096 10.958C4.25005 10.6807 3.59309 10.6807 3.03354 10.958C2.73944 11.1037 2.46682 11.3764 1.92157 11.9216C1.37632 12.4668 1.1037 12.7395 0.95796 13.0336C0.68068 13.5931 0.68068 14.2501 0.95796 14.8096C1.1037 15.1037 1.37632 15.3763 1.92157 15.9216L5.92157 19.9216C6.46682 20.4668 6.73944 20.7395 7.03354 20.8852C7.59309 21.1625 8.25005 21.1625 8.8096 20.8852C9.10367 20.7395 9.37637 20.4668 9.92157 19.9216ZM19.9216 9.92157C20.4668 9.37637 20.7395 9.10367 20.8852 8.8096C21.1625 8.25005 21.1625 7.59309 20.8852 7.03354C20.7395 6.73944 20.4669 6.46682 19.9216 5.92157L15.9216 1.92157C15.3764 1.37632 15.1037 1.1037 14.8096 0.95796C14.2501 0.68068 13.5931 0.68068 13.0336 0.95796C12.7395 1.1037 12.4668 1.37632 11.9216 1.92157C11.3764 2.46682 11.1037 2.73944 10.958 3.03354C10.6807 3.59309 10.6807 4.25005 10.958 4.8096C11.1037 5.1037 11.3763 5.37632 11.9216 5.92157L15.9216 9.92157C16.4668 10.4668 16.7395 10.7395 17.0336 10.8852C17.5931 11.1625 18.2501 11.1625 18.8096 10.8852C19.1037 10.7395 19.3764 10.4668 19.9216 9.92157Z" stroke="var(--stroke-0, black)" stroke-width="1.5" stroke-linecap="round" stroke-linejoin="round"/>
</svg>
