<svg preserveAspectRatio="none" width="100%" height="100%" overflow="visible" style="display: block;" viewBox="0 0 21.5 21.5" fill="none" xmlns="http://www.w3.org/2000/svg">
<path id="Vector" d="M10.75 20.75C16.2729 20.75 20.75 16.2729 20.75 10.7501C20.75 5.22715 16.2729 0.75 10.75 0.75M10.75 20.75C5.22715 20.75 0.75 16.2729 0.75 10.7501C0.75 5.22715 5.22715 0.75 10.75 0.75M10.75 20.75C14.0637 20.75 16.75 18.5115 16.75 15.7501C16.75 12.9886 14.0637 10.7501 10.75 10.7501C7.43629 10.7501 4.75 8.51143 4.75 5.75C4.75 2.98858 7.43629 0.75 10.75 0.75M10.25 5.75C10.25 6.02614 10.0262 6.25 9.74998 6.25C9.47388 6.25 9.24998 6.02614 9.24998 5.75M10.25 5.75C10.25 5.47386 10.0262 5.25 9.74998 5.25C9.47388 5.25 9.24998 5.47386 9.24998 5.75M10.25 5.75H9.24998M12.25 15.7501C12.25 16.0262 12.0262 16.2501 11.75 16.2501C11.4739 16.2501 11.25 16.0262 11.25 15.7501M12.25 15.7501C12.25 15.4739 12.0262 15.2501 11.75 15.2501C11.4739 15.2501 11.25 15.4739 11.25 15.7501M12.25 15.7501H11.25" stroke="var(--stroke-0, #100F0F)" stroke-width="1.5" stroke-linecap="round" stroke-linejoin="round"/>
</svg>
