<svg preserveAspectRatio="none" width="100%" height="100%" overflow="visible" style="display: block;" viewBox="0 0 16.5003 21.5" fill="none" xmlns="http://www.w3.org/2000/svg">
<path id="Vector" d="M11.7501 20.75V12.75M11.7501 12.75V0.750007L13.3262 1.14404C14.1929 1.3607 14.6262 1.46904 14.9489 1.71063C15.2335 1.92379 15.4562 2.20901 15.594 2.53688C15.7501 2.90849 15.7501 3.35516 15.7501 4.24849V8.77231C15.7501 9.49021 15.7501 9.84921 15.6408 10.1661C15.5441 10.4463 15.3864 10.7016 15.1789 10.9134C14.9444 11.1529 14.6233 11.3134 13.9812 11.6345L11.7501 12.75ZM3.75009 0.750007V9.75001M3.75009 9.75001V20.75M3.75009 9.75001L2.17505 8.69998C1.65407 8.35266 1.39358 8.179 1.205 7.94956C1.03805 7.74644 0.912789 7.51239 0.836389 7.26081C0.750089 6.97664 0.750089 6.66356 0.750089 6.03742V0.750007M3.75009 9.75001L5.32513 8.69998C5.84611 8.35266 6.1066 8.179 6.29518 7.94956C6.46213 7.74644 6.58739 7.51239 6.66379 7.26081C6.75009 6.97664 6.75009 6.66356 6.75009 6.03742V0.750007" stroke="var(--stroke-0, black)" stroke-width="1.5" stroke-linecap="round" stroke-linejoin="round"/>
</svg>
