<svg preserveAspectRatio="none" width="100%" height="100%" overflow="visible" style="display: block;" viewBox="0 0 24 24" fill="none" xmlns="http://www.w3.org/2000/svg">
<g id="globe.1 2">
<path id="Vector" d="M22 12C22 17.5228 17.5228 22 12 22M22 12C22 6.47715 17.5228 2 12 2M22 12C22 9.79086 17.5228 8 12 8C6.47715 8 2 9.79086 2 12M22 12C22 14.2091 17.5228 16 12 16C6.47715 16 2 14.2091 2 12M12 22C6.47715 22 2 17.5228 2 12M12 22C14.2091 22 16 17.5228 16 12C16 6.47715 14.2091 2 12 2M12 22C9.79086 22 8 17.5228 8 12C8 6.47715 9.79086 2 12 2M12 2C6.47715 2 2 6.47715 2 12" stroke="var(--stroke-0, #3D413B)" stroke-width="1.5" stroke-linecap="round" stroke-linejoin="round"/>
</g>
</svg>
