<svg preserveAspectRatio="none" width="100%" height="100%" overflow="visible" style="display: block;" viewBox="0 0 24 24" fill="none" xmlns="http://www.w3.org/2000/svg">
<g id="check-circle-outline-outlined-24px 1" clip-path="url(#clip0_0_18)">
<g id="Vector">
</g>
<path id="Vector_2" d="M12 2C6.48 2 2 6.48 2 12C2 17.52 6.48 22 12 22C17.52 22 22 17.52 22 12C22 6.48 17.52 2 12 2ZM12 20C7.59 20 4 16.41 4 12C4 7.59 7.59 4 12 4C16.41 4 20 7.59 20 12C20 16.41 16.41 20 12 20ZM16.59 7.58L10 14.17L7.41 11.59L6 13L10 17L18 9L16.59 7.58Z" fill="var(--fill-0, black)"/>
</g>
<defs>
<clipPath id="clip0_0_18">
<rect width="24" height="24" fill="white"/>
</clipPath>
</defs>
</svg>
