<svg preserveAspectRatio="none" width="100%" height="100%" overflow="visible" style="display: block;" viewBox="0 0 95.7262 24" fill="none" xmlns="http://www.w3.org/2000/svg">
<g id="Square_Logo_2025_Black 1" clip-path="url(#clip0_0_18)">
<path id="Vector" d="M24 4.01045V19.9891C24 22.2037 22.2051 23.9995 19.9896 23.9995H4.01045C1.79535 23.9995 0 22.2047 0 19.9891V4.01045C0 1.79582 1.79582 0 4.01045 0H19.9891C22.2047 0 23.9995 1.79487 23.9995 4.01045H24ZM19.6349 5.6311C19.6349 4.93182 19.0677 4.36512 18.3689 4.36512H5.63014C4.93086 4.36512 4.36416 4.93182 4.36416 5.6311V18.3718C4.36416 19.0711 4.93086 19.6378 5.63014 19.6378H18.3699C19.0691 19.6378 19.6358 19.0706 19.6358 18.3718V5.6311H19.6349ZM8.7264 9.45775C8.7264 9.05426 9.05139 8.72736 9.45249 8.72736H14.5451C14.9467 8.72736 15.2712 9.05474 15.2712 9.45775V14.5427C15.2712 14.9462 14.9481 15.2731 14.5451 15.2731H9.45249C9.05091 15.2731 8.7264 14.9457 8.7264 14.5427V9.45775ZM37.283 10.6227L37.0987 10.5816C35.1344 10.136 33.9488 9.86698 33.9488 8.57133C33.9488 7.41304 35.0506 6.60367 36.6282 6.60367C38.089 6.60367 39.2004 7.21441 40.126 8.52586C40.1792 8.601 40.262 8.65078 40.3529 8.66179C40.4434 8.6728 40.5343 8.64504 40.6032 8.58569L42.1425 7.2594C42.2708 7.14883 42.2933 6.96169 42.1952 6.82432C41.0374 5.20224 38.9879 4.23397 36.712 4.23397C35.2014 4.23397 33.8239 4.67718 32.8331 5.48224C31.7931 6.32702 31.2436 7.48914 31.2436 8.84367C31.2436 11.8954 33.8636 12.5263 35.9682 13.0331C36.1812 13.0848 36.3879 13.1336 36.588 13.1805C38.4901 13.6285 39.747 13.9243 39.747 15.2741C39.747 16.6238 38.5963 17.4509 36.8158 17.4509C35.2024 17.4509 33.7358 16.6324 32.6862 15.1468C32.6335 15.0726 32.5522 15.0228 32.4622 15.0108C32.3722 14.9989 32.2837 15.0242 32.2133 15.0821L30.5927 16.4218C30.4625 16.5295 30.4357 16.7157 30.5304 16.855C31.7572 18.6566 34.191 19.8211 36.7316 19.8211C38.29 19.8211 39.724 19.363 40.7693 18.5312C41.8831 17.6452 42.4718 16.4247 42.4718 15.0022C42.4718 11.7825 39.7139 11.1669 37.2811 10.6237L37.283 10.6227ZM53.9101 8.50719H51.9592C51.7802 8.50719 51.6347 8.65269 51.6347 8.8317V9.74397C51.0317 9.06384 50.0184 8.29755 48.515 8.29755C47.0116 8.29755 45.7926 8.88722 44.9076 10.0024C44.0862 11.0377 43.6334 12.4784 43.6334 14.0588C43.6334 15.6393 44.0858 17.08 44.9076 18.1152C45.7926 19.2309 47.0403 19.8201 48.515 19.8201C49.7896 19.8201 50.8651 19.3678 51.6347 18.5101V23.6755C51.6347 23.8545 51.7802 24 51.9592 24H53.9101C54.0891 24 54.2346 23.8545 54.2346 23.6755V8.8317C54.2346 8.65269 54.0891 8.50719 53.9101 8.50719ZM51.6974 13.7449V14.3944C51.6974 16.3022 50.6459 17.5347 49.018 17.5347C47.2878 17.5347 46.2544 16.2352 46.2544 14.0593C46.2544 11.8835 47.2873 10.584 49.018 10.584C50.6459 10.584 51.6974 11.8251 51.6974 13.7453V13.7449ZM65.1225 8.50719H63.1716C62.9926 8.50719 62.8471 8.65269 62.8471 8.8317V15.0855C62.8471 16.6387 61.731 17.4509 60.6282 17.4509C59.3823 17.4509 58.7237 16.7052 58.7237 15.2951V8.83218C58.7237 8.65317 58.5782 8.50767 58.3992 8.50767H56.4483C56.2693 8.50767 56.1238 8.65317 56.1238 8.83218V15.8398C56.1238 18.2583 57.6042 19.8206 59.8954 19.8206C61.0326 19.8206 61.999 19.3578 62.8471 18.4058V19.2654C62.8471 19.4444 62.9926 19.5899 63.1716 19.5899H65.1225C65.3016 19.5899 65.4471 19.4444 65.4471 19.2654V8.8317C65.4471 8.65269 65.3016 8.50719 65.1225 8.50719ZM76.9605 17.5691C76.5398 17.5576 76.3517 17.3403 76.3517 16.8655V12.1319C76.3517 9.65925 74.834 8.29755 72.0775 8.29755C69.9376 8.29755 68.2451 9.40989 67.5502 11.2737C67.5186 11.3589 67.5253 11.4546 67.5688 11.5355C67.6133 11.6183 67.6918 11.6781 67.7833 11.6992L69.5939 12.1161C69.7552 12.1529 69.9184 12.0615 69.974 11.9031C70.2965 10.9884 70.9317 10.5624 71.9727 10.5624C73.1947 10.5624 73.8145 11.1186 73.8145 12.2156V12.3688L70.812 12.99C68.2734 13.518 67.0912 14.6294 67.0912 16.4884C67.0912 18.3474 68.6333 19.778 70.8417 19.778C72.1938 19.778 73.2923 19.3621 74.0227 18.5738C74.4597 19.4224 75.6467 19.8321 77.0046 19.5956C77.1596 19.5684 77.2726 19.4339 77.2726 19.2754V17.8922C77.2726 17.7184 77.1324 17.5729 76.9605 17.5682V17.5691ZM73.815 14.3848V15.6718C73.815 16.9909 72.5093 17.6811 71.2189 17.6811C70.2492 17.6811 69.6705 17.1963 69.6705 16.384C69.6705 15.4569 70.3707 15.12 71.5003 14.8763L73.815 14.3848ZM84.9259 8.48757C84.7742 8.46268 84.6162 8.45071 84.443 8.45071C83.1267 8.45071 82.0058 9.04182 81.4702 10.0048V8.8317C81.4702 8.65269 81.3247 8.50719 81.1457 8.50719H79.1948C79.0158 8.50719 78.8703 8.65269 78.8703 8.8317V19.2654C78.8703 19.4444 79.0158 19.5899 79.1948 19.5899H81.1457C81.3247 19.5899 81.4702 19.4444 81.4702 19.2654V13.7659C81.4702 12.1256 82.5806 11.0234 84.2338 11.0234C84.4588 11.0234 84.6469 11.0315 84.8436 11.0502C84.934 11.0588 85.025 11.0286 85.0925 10.9674C85.16 10.9061 85.1987 10.8185 85.1987 10.7271V8.80825C85.1987 8.64839 85.0843 8.51341 84.9264 8.48757H84.9259ZM94.4698 9.89426C93.593 8.84941 92.3246 8.29755 90.8025 8.29755C89.2805 8.29755 87.9743 8.88818 87.0056 9.96127C86.0493 11.02 85.5228 12.475 85.5228 14.0588C85.5228 17.4509 87.7369 19.8201 90.9069 19.8201C93.0081 19.8201 94.6962 18.7896 95.5386 16.9924C95.5769 16.911 95.5793 16.8196 95.5453 16.7353C95.5113 16.6511 95.4429 16.5846 95.3582 16.5525L93.7456 15.9418C93.5834 15.8805 93.3977 15.9595 93.3326 16.1179C92.9459 17.0575 92.0613 17.5969 90.9069 17.5969C89.3236 17.5969 88.2218 16.4678 88.0227 14.6466H95.4012C95.5802 14.6466 95.7257 14.5011 95.7257 14.3221V13.7654C95.7257 12.2343 95.2797 10.8592 94.4693 9.89426H94.4698ZM93.1043 12.6751H88.1567C88.5267 11.2914 89.4806 10.4997 90.7815 10.4997C92.4433 10.4997 93.0693 11.6149 93.1038 12.6751H93.1043Z" fill="var(--fill-0, black)"/>
</g>
<defs>
<clipPath id="clip0_0_18">
<rect width="95.7262" height="24" fill="white"/>
</clipPath>
</defs>
</svg>
