<svg preserveAspectRatio="none" width="100%" height="100%" overflow="visible" style="display: block;" viewBox="0 0 24 169" fill="none" xmlns="http://www.w3.org/2000/svg">
<g id="Step Icons Container">
<g id="search.2 1">
<path id="Vector" d="M21 21L17.364 17.364M17.364 17.364C18.9926 15.7353 20 13.4853 20 11C20 6.02944 15.9706 2 11 2C6.02944 2 2 6.02944 2 11C2 15.9706 6.02944 20 11 20C13.4853 20 15.7353 18.9926 17.364 17.364Z" stroke="var(--stroke-0, black)" stroke-width="1.5" stroke-linecap="round" stroke-linejoin="round"/>
</g>
<line id="Line 110" opacity="0.5" x1="12.3033" y1="29" x2="12.3033" y2="68" stroke="var(--stroke-0, black)" stroke-width="0.60654" stroke-dasharray="1 2"/>
<g id="-calendar-event.1 1">
<path id="Vector_2" d="M7.99805 73.9961V76.9961M15.998 73.9961V76.9961M16.998 80.9961H6.99805M16.998 89.9961H14.998M11.598 94.9961H12.398C15.7583 94.9961 17.4385 94.9961 18.7219 94.3421C19.8509 93.7669 20.7688 92.849 21.344 91.72C21.998 90.4366 21.998 88.7564 21.998 85.3961V84.5961C21.998 81.2358 21.998 79.5556 21.344 78.2722C20.7688 77.1432 19.8509 76.2253 18.7219 75.6501C17.4385 74.9961 15.7583 74.9961 12.398 74.9961H11.598C8.23774 74.9961 6.55758 74.9961 5.27411 75.6501C4.14513 76.2253 3.22725 77.1432 2.65201 78.2722C1.99805 79.5556 1.99805 81.2358 1.99805 84.5961V85.3961C1.99805 88.7564 1.99805 90.4366 2.65201 91.72C3.22725 92.849 4.14513 93.7669 5.27411 94.3421C6.55758 94.9961 8.23774 94.9961 11.598 94.9961Z" stroke="var(--stroke-0, black)" stroke-width="1.5" stroke-linecap="round" stroke-linejoin="round"/>
</g>
<line id="Line 112" opacity="0.5" x1="12.3033" y1="102" x2="12.3033" y2="140" stroke="var(--stroke-0, black)" stroke-width="0.60654" stroke-dasharray="1 2"/>
<g id="checkbox-rec.2 5">
<path id="Vector_3" d="M16.4424 147H11.598C8.23773 147 6.55758 147 5.27411 147.654C4.14513 148.229 3.22725 149.147 2.65201 150.276C1.99805 151.56 1.99805 153.24 1.99805 156.6V157.4C1.99805 160.76 1.99805 162.44 2.65201 163.724C3.22725 164.853 4.14513 165.771 5.27411 166.346C6.55758 167 8.23774 167 11.598 167H12.398C15.7583 167 17.4385 167 18.7219 166.346C19.8509 165.771 20.7688 164.853 21.344 163.724C21.998 162.44 21.998 160.76 21.998 157.4V155.889M8.99805 156L11.998 159L21.998 149" stroke="var(--stroke-0, black)" stroke-width="1.5" stroke-linecap="round" stroke-linejoin="round"/>
</g>
</g>
</svg>
